G04 #@! TF.GenerationSoftware,KiCad,Pcbnew,(5.1.8)-1*
G04 #@! TF.CreationDate,2021-01-19T07:48:20+02:00*
G04 #@! TF.ProjectId,emmc-adapter,656d6d63-2d61-4646-9170-7465722e6b69,rev?*
G04 #@! TF.SameCoordinates,Original*
G04 #@! TF.FileFunction,Soldermask,Bot*
G04 #@! TF.FilePolarity,Negative*
%FSLAX46Y46*%
G04 Gerber Fmt 4.6, Leading zero omitted, Abs format (unit mm)*
G04 Created by KiCad (PCBNEW (5.1.8)-1) date 2021-01-19 07:48:20*
%MOMM*%
%LPD*%
G01*
G04 APERTURE LIST*
%ADD10C,0.200000*%
%ADD11C,1.000000*%
%ADD12C,0.350000*%
%ADD13R,0.800000X3.200000*%
%ADD14R,0.800000X2.900000*%
G04 APERTURE END LIST*
D10*
X110295238Y-76052380D02*
X110247619Y-76147619D01*
X110247619Y-76338095D01*
X110295238Y-76433333D01*
X110390476Y-76480952D01*
X110771428Y-76480952D01*
X110866666Y-76433333D01*
X110914285Y-76338095D01*
X110914285Y-76147619D01*
X110866666Y-76052380D01*
X110771428Y-76004761D01*
X110676190Y-76004761D01*
X110580952Y-76480952D01*
X110247619Y-75576190D02*
X111247619Y-75576190D01*
X110533333Y-75242857D01*
X111247619Y-74909523D01*
X110247619Y-74909523D01*
X110247619Y-74433333D02*
X111247619Y-74433333D01*
X110533333Y-74100000D01*
X111247619Y-73766666D01*
X110247619Y-73766666D01*
X110342857Y-72719047D02*
X110295238Y-72766666D01*
X110247619Y-72909523D01*
X110247619Y-73004761D01*
X110295238Y-73147619D01*
X110390476Y-73242857D01*
X110485714Y-73290476D01*
X110676190Y-73338095D01*
X110819047Y-73338095D01*
X111009523Y-73290476D01*
X111104761Y-73242857D01*
X111200000Y-73147619D01*
X111247619Y-73004761D01*
X111247619Y-72909523D01*
X111200000Y-72766666D01*
X111152380Y-72719047D01*
D11*
X122600000Y-62450000D03*
X110550000Y-81200000D03*
X127300000Y-81000000D03*
D12*
X115500000Y-71250000D03*
X115500000Y-71750000D03*
X115500000Y-72250000D03*
X115500000Y-72750000D03*
X115500000Y-73250000D03*
X115500000Y-73750000D03*
X115500000Y-74250000D03*
X115500000Y-74750000D03*
X115500000Y-75250000D03*
X115500000Y-75750000D03*
X115500000Y-76250000D03*
X115500000Y-76750000D03*
X115500000Y-77250000D03*
X115500000Y-77750000D03*
X116000000Y-71250000D03*
X116000000Y-71750000D03*
X116000000Y-72250000D03*
X116000000Y-72750000D03*
X116000000Y-73250000D03*
X116000000Y-73750000D03*
X116000000Y-74250000D03*
X116000000Y-74750000D03*
X116000000Y-75250000D03*
X116000000Y-75750000D03*
X116000000Y-76250000D03*
X116000000Y-76750000D03*
X116000000Y-77250000D03*
X116000000Y-77750000D03*
X116500000Y-71250000D03*
X116500000Y-71750000D03*
X116500000Y-72250000D03*
X116500000Y-72750000D03*
X116500000Y-73250000D03*
X116500000Y-73750000D03*
X116500000Y-74250000D03*
X116500000Y-74750000D03*
X116500000Y-75250000D03*
X116500000Y-75750000D03*
X116500000Y-76250000D03*
X116500000Y-76750000D03*
X116500000Y-77250000D03*
X116500000Y-77750000D03*
X117000000Y-71250000D03*
X117000000Y-71750000D03*
X117000000Y-72250000D03*
X117000000Y-72750000D03*
X117000000Y-76750000D03*
X117000000Y-77250000D03*
X117000000Y-77750000D03*
X117500000Y-71250000D03*
X117500000Y-71750000D03*
X117500000Y-72250000D03*
X117500000Y-73250000D03*
X117500000Y-73750000D03*
X117500000Y-74250000D03*
X117500000Y-74750000D03*
X117500000Y-75250000D03*
X117500000Y-75750000D03*
X117500000Y-76750000D03*
X117500000Y-77250000D03*
X117500000Y-77750000D03*
X118000000Y-71250000D03*
X118000000Y-71750000D03*
X118000000Y-72250000D03*
X118000000Y-73250000D03*
X118000000Y-75750000D03*
X118000000Y-76750000D03*
X118000000Y-77250000D03*
X118000000Y-77750000D03*
X118500000Y-71250000D03*
X118500000Y-71750000D03*
X118500000Y-72250000D03*
X118500000Y-73250000D03*
X118500000Y-75750000D03*
X118500000Y-76750000D03*
X118500000Y-77250000D03*
X118500000Y-77750000D03*
X119000000Y-71250000D03*
X119000000Y-71750000D03*
X119000000Y-72250000D03*
X119000000Y-73250000D03*
X119000000Y-75750000D03*
X119000000Y-76750000D03*
X119000000Y-77250000D03*
X119000000Y-77750000D03*
X119500000Y-71250000D03*
X119500000Y-71750000D03*
X119500000Y-72250000D03*
X119500000Y-73250000D03*
X119500000Y-75750000D03*
X119500000Y-76750000D03*
X119500000Y-77250000D03*
X119500000Y-77750000D03*
X120000000Y-71250000D03*
X120000000Y-71750000D03*
X120000000Y-72250000D03*
X120000000Y-73250000D03*
X120000000Y-73750000D03*
X120000000Y-74250000D03*
X120000000Y-74750000D03*
X120000000Y-75250000D03*
X120000000Y-75750000D03*
X120000000Y-76750000D03*
X120000000Y-77250000D03*
X120000000Y-77750000D03*
X120500000Y-71250000D03*
X120500000Y-71750000D03*
X120500000Y-72250000D03*
X120500000Y-76750000D03*
X120500000Y-77250000D03*
X120500000Y-77750000D03*
X121000000Y-71250000D03*
X121000000Y-71750000D03*
X121000000Y-72250000D03*
X121000000Y-72750000D03*
X121000000Y-73250000D03*
X121000000Y-73750000D03*
X121000000Y-74250000D03*
X121000000Y-74750000D03*
X121000000Y-75250000D03*
X121000000Y-75750000D03*
X121000000Y-76250000D03*
X121000000Y-76750000D03*
X121000000Y-77250000D03*
X121000000Y-77750000D03*
X121500000Y-71250000D03*
X121500000Y-71750000D03*
X121500000Y-72250000D03*
X121500000Y-72750000D03*
X121500000Y-73250000D03*
X121500000Y-73750000D03*
X121500000Y-74250000D03*
X121500000Y-74750000D03*
X121500000Y-75250000D03*
X121500000Y-75750000D03*
X121500000Y-76250000D03*
X121500000Y-76750000D03*
X121500000Y-77250000D03*
X121500000Y-77750000D03*
X122000000Y-71250000D03*
X122000000Y-71750000D03*
X122000000Y-72250000D03*
X122000000Y-72750000D03*
X122000000Y-73250000D03*
X122000000Y-73750000D03*
X122000000Y-74250000D03*
X122000000Y-74750000D03*
X122000000Y-75250000D03*
X122000000Y-75750000D03*
X122000000Y-76250000D03*
X122000000Y-76750000D03*
X122000000Y-77250000D03*
X122000000Y-77750000D03*
D13*
X118800000Y-53400000D03*
D14*
X119900000Y-53550000D03*
X121000000Y-53550000D03*
X117700000Y-53550000D03*
D13*
X116600000Y-53400000D03*
D14*
X115500000Y-53550000D03*
X114400000Y-53550000D03*
X122100000Y-53550000D03*
G36*
G01*
X127006250Y-71650000D02*
X126493750Y-71650000D01*
G75*
G02*
X126275000Y-71431250I0J218750D01*
G01*
X126275000Y-70993750D01*
G75*
G02*
X126493750Y-70775000I218750J0D01*
G01*
X127006250Y-70775000D01*
G75*
G02*
X127225000Y-70993750I0J-218750D01*
G01*
X127225000Y-71431250D01*
G75*
G02*
X127006250Y-71650000I-218750J0D01*
G01*
G37*
G36*
G01*
X127006250Y-73225000D02*
X126493750Y-73225000D01*
G75*
G02*
X126275000Y-73006250I0J218750D01*
G01*
X126275000Y-72568750D01*
G75*
G02*
X126493750Y-72350000I218750J0D01*
G01*
X127006250Y-72350000D01*
G75*
G02*
X127225000Y-72568750I0J-218750D01*
G01*
X127225000Y-73006250D01*
G75*
G02*
X127006250Y-73225000I-218750J0D01*
G01*
G37*
G36*
G01*
X117600000Y-67756250D02*
X117600000Y-67243750D01*
G75*
G02*
X117818750Y-67025000I218750J0D01*
G01*
X118256250Y-67025000D01*
G75*
G02*
X118475000Y-67243750I0J-218750D01*
G01*
X118475000Y-67756250D01*
G75*
G02*
X118256250Y-67975000I-218750J0D01*
G01*
X117818750Y-67975000D01*
G75*
G02*
X117600000Y-67756250I0J218750D01*
G01*
G37*
G36*
G01*
X116025000Y-67756250D02*
X116025000Y-67243750D01*
G75*
G02*
X116243750Y-67025000I218750J0D01*
G01*
X116681250Y-67025000D01*
G75*
G02*
X116900000Y-67243750I0J-218750D01*
G01*
X116900000Y-67756250D01*
G75*
G02*
X116681250Y-67975000I-218750J0D01*
G01*
X116243750Y-67975000D01*
G75*
G02*
X116025000Y-67756250I0J218750D01*
G01*
G37*
M02*
