M48
; DRILL file {KiCad (5.1.8)-1} date 01/19/21 07:48:23
; FORMAT={-:-/ absolute / inch / decimal}
; #@! TF.CreationDate,2021-01-19T07:48:23+02:00
; #@! TF.GenerationSoftware,Kicad,Pcbnew,(5.1.8)-1
; #@! TF.FileFunction,Plated,1,2,PTH
FMAT,2
INCH
T1C0.0118
%
G90
G05
T1
X4.4646Y-2.7362
X4.4685Y-2.9134
X4.4724Y-3.1102
X4.4961Y-2.2441
X4.5098Y-2.2756
X4.5748Y-2.248
X4.5787Y-2.3031
X4.6024Y-2.3307
X4.6063Y-2.248
X4.626Y-2.7677
X4.6378Y-2.248
X4.6378Y-2.3307
X4.6496Y-2.5945
X4.6535Y-2.374
X4.6693Y-2.7756
X4.6732Y-2.9331
X4.6811Y-3.1181
X4.7165Y-2.374
X4.7559Y-2.2756
X4.7559Y-2.3051
X4.7717Y-2.7756
X4.7874Y-2.2441
X4.8189Y-2.2441
X4.8346Y-2.8189
X4.8937Y-3.1142
X4.8976Y-2.9134
X4.9134Y-2.7283
T0
M30
