G04 #@! TF.GenerationSoftware,KiCad,Pcbnew,(5.1.8)-1*
G04 #@! TF.CreationDate,2021-01-19T07:48:20+02:00*
G04 #@! TF.ProjectId,emmc-adapter,656d6d63-2d61-4646-9170-7465722e6b69,rev?*
G04 #@! TF.SameCoordinates,Original*
G04 #@! TF.FileFunction,Soldermask,Top*
G04 #@! TF.FilePolarity,Negative*
%FSLAX46Y46*%
G04 Gerber Fmt 4.6, Leading zero omitted, Abs format (unit mm)*
G04 Created by KiCad (PCBNEW (5.1.8)-1) date 2021-01-19 07:48:20*
%MOMM*%
%LPD*%
G01*
G04 APERTURE LIST*
%ADD10C,0.300000*%
%ADD11C,0.010000*%
G04 APERTURE END LIST*
D10*
X115268928Y-80150000D02*
X115983214Y-80150000D01*
X115072500Y-80578571D02*
X115760000Y-79078571D01*
X116072500Y-80578571D01*
X117215357Y-80578571D02*
X117402857Y-79078571D01*
X117224285Y-80507142D02*
X117072500Y-80578571D01*
X116786785Y-80578571D01*
X116652857Y-80507142D01*
X116590357Y-80435714D01*
X116536785Y-80292857D01*
X116590357Y-79864285D01*
X116679642Y-79721428D01*
X116760000Y-79650000D01*
X116911785Y-79578571D01*
X117197500Y-79578571D01*
X117331428Y-79650000D01*
X118572500Y-80578571D02*
X118670714Y-79792857D01*
X118617142Y-79650000D01*
X118483214Y-79578571D01*
X118197500Y-79578571D01*
X118045714Y-79650000D01*
X118581428Y-80507142D02*
X118429642Y-80578571D01*
X118072500Y-80578571D01*
X117938571Y-80507142D01*
X117885000Y-80364285D01*
X117902857Y-80221428D01*
X117992142Y-80078571D01*
X118143928Y-80007142D01*
X118501071Y-80007142D01*
X118652857Y-79935714D01*
X119411785Y-79578571D02*
X119224285Y-81078571D01*
X119402857Y-79650000D02*
X119554642Y-79578571D01*
X119840357Y-79578571D01*
X119974285Y-79650000D01*
X120036785Y-79721428D01*
X120090357Y-79864285D01*
X120036785Y-80292857D01*
X119947500Y-80435714D01*
X119867142Y-80507142D01*
X119715357Y-80578571D01*
X119429642Y-80578571D01*
X119295714Y-80507142D01*
X120554642Y-79578571D02*
X121126071Y-79578571D01*
X120831428Y-79078571D02*
X120670714Y-80364285D01*
X120724285Y-80507142D01*
X120858214Y-80578571D01*
X121001071Y-80578571D01*
X122081428Y-80507142D02*
X121929642Y-80578571D01*
X121643928Y-80578571D01*
X121510000Y-80507142D01*
X121456428Y-80364285D01*
X121527857Y-79792857D01*
X121617142Y-79650000D01*
X121768928Y-79578571D01*
X122054642Y-79578571D01*
X122188571Y-79650000D01*
X122242142Y-79792857D01*
X122224285Y-79935714D01*
X121492142Y-80078571D01*
X122786785Y-80578571D02*
X122911785Y-79578571D01*
X122876071Y-79864285D02*
X122965357Y-79721428D01*
X123045714Y-79650000D01*
X123197500Y-79578571D01*
X123340357Y-79578571D01*
X114110000Y-78307142D02*
X113958214Y-78378571D01*
X113672500Y-78378571D01*
X113538571Y-78307142D01*
X113485000Y-78164285D01*
X113556428Y-77592857D01*
X113645714Y-77450000D01*
X113797500Y-77378571D01*
X114083214Y-77378571D01*
X114217142Y-77450000D01*
X114270714Y-77592857D01*
X114252857Y-77735714D01*
X113520714Y-77878571D01*
X114815357Y-78378571D02*
X115002857Y-76878571D01*
X115368928Y-77950000D01*
X116002857Y-76878571D01*
X115815357Y-78378571D01*
X116529642Y-78378571D02*
X116717142Y-76878571D01*
X117083214Y-77950000D01*
X117717142Y-76878571D01*
X117529642Y-78378571D01*
X119118928Y-78235714D02*
X119038571Y-78307142D01*
X118815357Y-78378571D01*
X118672500Y-78378571D01*
X118467142Y-78307142D01*
X118342142Y-78164285D01*
X118288571Y-78021428D01*
X118252857Y-77735714D01*
X118279642Y-77521428D01*
X118386785Y-77235714D01*
X118476071Y-77092857D01*
X118636785Y-76950000D01*
X118860000Y-76878571D01*
X119002857Y-76878571D01*
X119208214Y-76950000D01*
X119270714Y-77021428D01*
X121654642Y-77378571D02*
X121529642Y-78378571D01*
X121011785Y-77378571D02*
X120913571Y-78164285D01*
X120967142Y-78307142D01*
X121101071Y-78378571D01*
X121315357Y-78378571D01*
X121467142Y-78307142D01*
X121547500Y-78235714D01*
X122181428Y-78307142D02*
X122386785Y-78378571D01*
X122743928Y-78378571D01*
X122895714Y-78307142D01*
X122976071Y-78235714D01*
X123065357Y-78092857D01*
X123083214Y-77950000D01*
X123029642Y-77807142D01*
X122967142Y-77735714D01*
X122833214Y-77664285D01*
X122556428Y-77592857D01*
X122422500Y-77521428D01*
X122360000Y-77450000D01*
X122306428Y-77307142D01*
X122324285Y-77164285D01*
X122413571Y-77021428D01*
X122493928Y-76950000D01*
X122645714Y-76878571D01*
X123002857Y-76878571D01*
X123208214Y-76950000D01*
X123672500Y-78378571D02*
X123860000Y-76878571D01*
X124217142Y-76878571D01*
X124422500Y-76950000D01*
X124547500Y-77092857D01*
X124601071Y-77235714D01*
X124636785Y-77521428D01*
X124610000Y-77735714D01*
X124502857Y-78021428D01*
X124413571Y-78164285D01*
X124252857Y-78307142D01*
X124029642Y-78378571D01*
X123672500Y-78378571D01*
D11*
G36*
X119400612Y-73286747D02*
G01*
X119515058Y-73288269D01*
X119627330Y-73290669D01*
X119736437Y-73293968D01*
X119841387Y-73298183D01*
X119941192Y-73303335D01*
X120033889Y-73309373D01*
X120120759Y-73316354D01*
X120196310Y-73324053D01*
X120261922Y-73332929D01*
X120318972Y-73343440D01*
X120368840Y-73356046D01*
X120412903Y-73371204D01*
X120452542Y-73389373D01*
X120489133Y-73411013D01*
X120524057Y-73436582D01*
X120558692Y-73466539D01*
X120586339Y-73493192D01*
X120625265Y-73534695D01*
X120657702Y-73575608D01*
X120684508Y-73617910D01*
X120706542Y-73663577D01*
X120724663Y-73714589D01*
X120739728Y-73772923D01*
X120752598Y-73840556D01*
X120760857Y-73895187D01*
X120767758Y-73946968D01*
X120773496Y-73995506D01*
X120778168Y-74042683D01*
X120781874Y-74090386D01*
X120784712Y-74140498D01*
X120786778Y-74194905D01*
X120788173Y-74255491D01*
X120788993Y-74324141D01*
X120789337Y-74402740D01*
X120789362Y-74442517D01*
X120788798Y-74550542D01*
X120787094Y-74647345D01*
X120784141Y-74734361D01*
X120779830Y-74813027D01*
X120774053Y-74884776D01*
X120766701Y-74951046D01*
X120757665Y-75013272D01*
X120746836Y-75072889D01*
X120738750Y-75111080D01*
X120714763Y-75191825D01*
X120680665Y-75266414D01*
X120637287Y-75334019D01*
X120585459Y-75393813D01*
X120526010Y-75444969D01*
X120459773Y-75486658D01*
X120387576Y-75518053D01*
X120310250Y-75538326D01*
X120310114Y-75538351D01*
X120293349Y-75540676D01*
X120270396Y-75542598D01*
X120240263Y-75544146D01*
X120201953Y-75545345D01*
X120154473Y-75546223D01*
X120096829Y-75546808D01*
X120028027Y-75547125D01*
X119985204Y-75547195D01*
X119707919Y-75547417D01*
X119670039Y-75587104D01*
X119659612Y-75598416D01*
X119641588Y-75618421D01*
X119616735Y-75646251D01*
X119585817Y-75681040D01*
X119549603Y-75721924D01*
X119508858Y-75768035D01*
X119464348Y-75818507D01*
X119416840Y-75872475D01*
X119367100Y-75929072D01*
X119325882Y-75976042D01*
X119275177Y-76033818D01*
X119226297Y-76089435D01*
X119179980Y-76142053D01*
X119136968Y-76190837D01*
X119098001Y-76234950D01*
X119063817Y-76273554D01*
X119035158Y-76305813D01*
X119012763Y-76330890D01*
X118997373Y-76347948D01*
X118990411Y-76355454D01*
X118967323Y-76375892D01*
X118948428Y-76384854D01*
X118933031Y-76382589D01*
X118927084Y-76377997D01*
X118920272Y-76365150D01*
X118919464Y-76359466D01*
X118921513Y-76351637D01*
X118927414Y-76332915D01*
X118936800Y-76304386D01*
X118949301Y-76267135D01*
X118964549Y-76222247D01*
X118982176Y-76170808D01*
X119001813Y-76113903D01*
X119023091Y-76052617D01*
X119043546Y-75994023D01*
X119067545Y-75925436D01*
X119091517Y-75856890D01*
X119114913Y-75789960D01*
X119137184Y-75726219D01*
X119157780Y-75667239D01*
X119176151Y-75614595D01*
X119191749Y-75569858D01*
X119204024Y-75534604D01*
X119209501Y-75518842D01*
X119223926Y-75478386D01*
X119238729Y-75438817D01*
X119252810Y-75402938D01*
X119265069Y-75373554D01*
X119274265Y-75353742D01*
X119303215Y-75308549D01*
X119341235Y-75265550D01*
X119384769Y-75228309D01*
X119424289Y-75203405D01*
X119444583Y-75193046D01*
X119463087Y-75184482D01*
X119481245Y-75177542D01*
X119500498Y-75172055D01*
X119522289Y-75167848D01*
X119548061Y-75164751D01*
X119579256Y-75162591D01*
X119617318Y-75161198D01*
X119663689Y-75160400D01*
X119719812Y-75160026D01*
X119787129Y-75159903D01*
X119790330Y-75159901D01*
X119887830Y-75159524D01*
X119973061Y-75158520D01*
X120046438Y-75156870D01*
X120108378Y-75154552D01*
X120159295Y-75151547D01*
X120199607Y-75147835D01*
X120229729Y-75143394D01*
X120250077Y-75138205D01*
X120252302Y-75137365D01*
X120280549Y-75120133D01*
X120305943Y-75093735D01*
X120325480Y-75061707D01*
X120332670Y-75042869D01*
X120344202Y-74995757D01*
X120354245Y-74937561D01*
X120362778Y-74869812D01*
X120369781Y-74794039D01*
X120375231Y-74711773D01*
X120379109Y-74624546D01*
X120381393Y-74533887D01*
X120382062Y-74441327D01*
X120381096Y-74348397D01*
X120378473Y-74256627D01*
X120374172Y-74167548D01*
X120368172Y-74082691D01*
X120360453Y-74003585D01*
X120350993Y-73931762D01*
X120348150Y-73913897D01*
X120338126Y-73863106D01*
X120325883Y-73823389D01*
X120309897Y-73793139D01*
X120288647Y-73770747D01*
X120260609Y-73754608D01*
X120224259Y-73743114D01*
X120178340Y-73734696D01*
X120123792Y-73727984D01*
X120057772Y-73721903D01*
X119981493Y-73716466D01*
X119896169Y-73711682D01*
X119803011Y-73707563D01*
X119703234Y-73704119D01*
X119598050Y-73701362D01*
X119488673Y-73699303D01*
X119376314Y-73697951D01*
X119262188Y-73697319D01*
X119147506Y-73697417D01*
X119033483Y-73698256D01*
X118921331Y-73699847D01*
X118812264Y-73702200D01*
X118707493Y-73705328D01*
X118608233Y-73709240D01*
X118515695Y-73713947D01*
X118436864Y-73719039D01*
X118367334Y-73724569D01*
X118309323Y-73730660D01*
X118261650Y-73738022D01*
X118223136Y-73747367D01*
X118192599Y-73759404D01*
X118168859Y-73774844D01*
X118150736Y-73794397D01*
X118137050Y-73818774D01*
X118126619Y-73848684D01*
X118118265Y-73884839D01*
X118113077Y-73913897D01*
X118103148Y-73983483D01*
X118094964Y-74060763D01*
X118088505Y-74144208D01*
X118083750Y-74232286D01*
X118080677Y-74323468D01*
X118079265Y-74416223D01*
X118079495Y-74509021D01*
X118081343Y-74600331D01*
X118084791Y-74688623D01*
X118089816Y-74772366D01*
X118096398Y-74850030D01*
X118104515Y-74920085D01*
X118114147Y-74981000D01*
X118125274Y-75031244D01*
X118128539Y-75042809D01*
X118145628Y-75078648D01*
X118172706Y-75108533D01*
X118206089Y-75129337D01*
X118227868Y-75135811D01*
X118261675Y-75141354D01*
X118306870Y-75145923D01*
X118362811Y-75149473D01*
X118428858Y-75151960D01*
X118504369Y-75153340D01*
X118558059Y-75153622D01*
X118701480Y-75153717D01*
X118742402Y-75110854D01*
X118754503Y-75097789D01*
X118774004Y-75076241D01*
X118799948Y-75047289D01*
X118831377Y-75012011D01*
X118867331Y-74971487D01*
X118906854Y-74926794D01*
X118948987Y-74879011D01*
X118992772Y-74829218D01*
X119008556Y-74811233D01*
X119055340Y-74757902D01*
X119102919Y-74703667D01*
X119150000Y-74650000D01*
X119195289Y-74598378D01*
X119237493Y-74550276D01*
X119275316Y-74507167D01*
X119307466Y-74470528D01*
X119332648Y-74441833D01*
X119334469Y-74439758D01*
X119363401Y-74407245D01*
X119390352Y-74377810D01*
X119413964Y-74352868D01*
X119432881Y-74333832D01*
X119445747Y-74322117D01*
X119450164Y-74319121D01*
X119464837Y-74316959D01*
X119478071Y-74324867D01*
X119487612Y-74335224D01*
X119490964Y-74341767D01*
X119488922Y-74348607D01*
X119483060Y-74366280D01*
X119473774Y-74393640D01*
X119461458Y-74429540D01*
X119446508Y-74472832D01*
X119429319Y-74522372D01*
X119410286Y-74577011D01*
X119389804Y-74635603D01*
X119383527Y-74653521D01*
X119359848Y-74721111D01*
X119335146Y-74791681D01*
X119310196Y-74863009D01*
X119285776Y-74932876D01*
X119262660Y-74999061D01*
X119241626Y-75059343D01*
X119223448Y-75111500D01*
X119212318Y-75143485D01*
X119195442Y-75191216D01*
X119178826Y-75236716D01*
X119163188Y-75278126D01*
X119149248Y-75313589D01*
X119137724Y-75341246D01*
X119129335Y-75359239D01*
X119127667Y-75362257D01*
X119091503Y-75411783D01*
X119045555Y-75456071D01*
X118992277Y-75493285D01*
X118934120Y-75521587D01*
X118899624Y-75533056D01*
X118889872Y-75535482D01*
X118878883Y-75537534D01*
X118865566Y-75539243D01*
X118848831Y-75540638D01*
X118827586Y-75541751D01*
X118800741Y-75542614D01*
X118767205Y-75543255D01*
X118725886Y-75543708D01*
X118675695Y-75544001D01*
X118615540Y-75544166D01*
X118544331Y-75544234D01*
X118503539Y-75544242D01*
X118147939Y-75544242D01*
X118086067Y-75522816D01*
X118007520Y-75489349D01*
X117937249Y-75446274D01*
X117875410Y-75393728D01*
X117822160Y-75331849D01*
X117777653Y-75260777D01*
X117766873Y-75239442D01*
X117749944Y-75199990D01*
X117734990Y-75155587D01*
X117721757Y-75104965D01*
X117709993Y-75046857D01*
X117699446Y-74979997D01*
X117689861Y-74903117D01*
X117680986Y-74814952D01*
X117680038Y-74804467D01*
X117677683Y-74769927D01*
X117675719Y-74724644D01*
X117674148Y-74670565D01*
X117672968Y-74609640D01*
X117672179Y-74543819D01*
X117671783Y-74475050D01*
X117671778Y-74405284D01*
X117672165Y-74336469D01*
X117672944Y-74270555D01*
X117674115Y-74209492D01*
X117675678Y-74155228D01*
X117677632Y-74109713D01*
X117679978Y-74074897D01*
X117680038Y-74074217D01*
X117689131Y-73981943D01*
X117699061Y-73901071D01*
X117710214Y-73830313D01*
X117722978Y-73768378D01*
X117737738Y-73713977D01*
X117754883Y-73665820D01*
X117774798Y-73622618D01*
X117797870Y-73583081D01*
X117824487Y-73545920D01*
X117846425Y-73519497D01*
X117905133Y-73460687D01*
X117968634Y-73413274D01*
X118038246Y-73376443D01*
X118115286Y-73349374D01*
X118124856Y-73346805D01*
X118165718Y-73338067D01*
X118218276Y-73329937D01*
X118281539Y-73322432D01*
X118354516Y-73315572D01*
X118436216Y-73309378D01*
X118525650Y-73303867D01*
X118621825Y-73299061D01*
X118723752Y-73294977D01*
X118830440Y-73291636D01*
X118940897Y-73289057D01*
X119054134Y-73287259D01*
X119169159Y-73286262D01*
X119284982Y-73286085D01*
X119400612Y-73286747D01*
G37*
X119400612Y-73286747D02*
X119515058Y-73288269D01*
X119627330Y-73290669D01*
X119736437Y-73293968D01*
X119841387Y-73298183D01*
X119941192Y-73303335D01*
X120033889Y-73309373D01*
X120120759Y-73316354D01*
X120196310Y-73324053D01*
X120261922Y-73332929D01*
X120318972Y-73343440D01*
X120368840Y-73356046D01*
X120412903Y-73371204D01*
X120452542Y-73389373D01*
X120489133Y-73411013D01*
X120524057Y-73436582D01*
X120558692Y-73466539D01*
X120586339Y-73493192D01*
X120625265Y-73534695D01*
X120657702Y-73575608D01*
X120684508Y-73617910D01*
X120706542Y-73663577D01*
X120724663Y-73714589D01*
X120739728Y-73772923D01*
X120752598Y-73840556D01*
X120760857Y-73895187D01*
X120767758Y-73946968D01*
X120773496Y-73995506D01*
X120778168Y-74042683D01*
X120781874Y-74090386D01*
X120784712Y-74140498D01*
X120786778Y-74194905D01*
X120788173Y-74255491D01*
X120788993Y-74324141D01*
X120789337Y-74402740D01*
X120789362Y-74442517D01*
X120788798Y-74550542D01*
X120787094Y-74647345D01*
X120784141Y-74734361D01*
X120779830Y-74813027D01*
X120774053Y-74884776D01*
X120766701Y-74951046D01*
X120757665Y-75013272D01*
X120746836Y-75072889D01*
X120738750Y-75111080D01*
X120714763Y-75191825D01*
X120680665Y-75266414D01*
X120637287Y-75334019D01*
X120585459Y-75393813D01*
X120526010Y-75444969D01*
X120459773Y-75486658D01*
X120387576Y-75518053D01*
X120310250Y-75538326D01*
X120310114Y-75538351D01*
X120293349Y-75540676D01*
X120270396Y-75542598D01*
X120240263Y-75544146D01*
X120201953Y-75545345D01*
X120154473Y-75546223D01*
X120096829Y-75546808D01*
X120028027Y-75547125D01*
X119985204Y-75547195D01*
X119707919Y-75547417D01*
X119670039Y-75587104D01*
X119659612Y-75598416D01*
X119641588Y-75618421D01*
X119616735Y-75646251D01*
X119585817Y-75681040D01*
X119549603Y-75721924D01*
X119508858Y-75768035D01*
X119464348Y-75818507D01*
X119416840Y-75872475D01*
X119367100Y-75929072D01*
X119325882Y-75976042D01*
X119275177Y-76033818D01*
X119226297Y-76089435D01*
X119179980Y-76142053D01*
X119136968Y-76190837D01*
X119098001Y-76234950D01*
X119063817Y-76273554D01*
X119035158Y-76305813D01*
X119012763Y-76330890D01*
X118997373Y-76347948D01*
X118990411Y-76355454D01*
X118967323Y-76375892D01*
X118948428Y-76384854D01*
X118933031Y-76382589D01*
X118927084Y-76377997D01*
X118920272Y-76365150D01*
X118919464Y-76359466D01*
X118921513Y-76351637D01*
X118927414Y-76332915D01*
X118936800Y-76304386D01*
X118949301Y-76267135D01*
X118964549Y-76222247D01*
X118982176Y-76170808D01*
X119001813Y-76113903D01*
X119023091Y-76052617D01*
X119043546Y-75994023D01*
X119067545Y-75925436D01*
X119091517Y-75856890D01*
X119114913Y-75789960D01*
X119137184Y-75726219D01*
X119157780Y-75667239D01*
X119176151Y-75614595D01*
X119191749Y-75569858D01*
X119204024Y-75534604D01*
X119209501Y-75518842D01*
X119223926Y-75478386D01*
X119238729Y-75438817D01*
X119252810Y-75402938D01*
X119265069Y-75373554D01*
X119274265Y-75353742D01*
X119303215Y-75308549D01*
X119341235Y-75265550D01*
X119384769Y-75228309D01*
X119424289Y-75203405D01*
X119444583Y-75193046D01*
X119463087Y-75184482D01*
X119481245Y-75177542D01*
X119500498Y-75172055D01*
X119522289Y-75167848D01*
X119548061Y-75164751D01*
X119579256Y-75162591D01*
X119617318Y-75161198D01*
X119663689Y-75160400D01*
X119719812Y-75160026D01*
X119787129Y-75159903D01*
X119790330Y-75159901D01*
X119887830Y-75159524D01*
X119973061Y-75158520D01*
X120046438Y-75156870D01*
X120108378Y-75154552D01*
X120159295Y-75151547D01*
X120199607Y-75147835D01*
X120229729Y-75143394D01*
X120250077Y-75138205D01*
X120252302Y-75137365D01*
X120280549Y-75120133D01*
X120305943Y-75093735D01*
X120325480Y-75061707D01*
X120332670Y-75042869D01*
X120344202Y-74995757D01*
X120354245Y-74937561D01*
X120362778Y-74869812D01*
X120369781Y-74794039D01*
X120375231Y-74711773D01*
X120379109Y-74624546D01*
X120381393Y-74533887D01*
X120382062Y-74441327D01*
X120381096Y-74348397D01*
X120378473Y-74256627D01*
X120374172Y-74167548D01*
X120368172Y-74082691D01*
X120360453Y-74003585D01*
X120350993Y-73931762D01*
X120348150Y-73913897D01*
X120338126Y-73863106D01*
X120325883Y-73823389D01*
X120309897Y-73793139D01*
X120288647Y-73770747D01*
X120260609Y-73754608D01*
X120224259Y-73743114D01*
X120178340Y-73734696D01*
X120123792Y-73727984D01*
X120057772Y-73721903D01*
X119981493Y-73716466D01*
X119896169Y-73711682D01*
X119803011Y-73707563D01*
X119703234Y-73704119D01*
X119598050Y-73701362D01*
X119488673Y-73699303D01*
X119376314Y-73697951D01*
X119262188Y-73697319D01*
X119147506Y-73697417D01*
X119033483Y-73698256D01*
X118921331Y-73699847D01*
X118812264Y-73702200D01*
X118707493Y-73705328D01*
X118608233Y-73709240D01*
X118515695Y-73713947D01*
X118436864Y-73719039D01*
X118367334Y-73724569D01*
X118309323Y-73730660D01*
X118261650Y-73738022D01*
X118223136Y-73747367D01*
X118192599Y-73759404D01*
X118168859Y-73774844D01*
X118150736Y-73794397D01*
X118137050Y-73818774D01*
X118126619Y-73848684D01*
X118118265Y-73884839D01*
X118113077Y-73913897D01*
X118103148Y-73983483D01*
X118094964Y-74060763D01*
X118088505Y-74144208D01*
X118083750Y-74232286D01*
X118080677Y-74323468D01*
X118079265Y-74416223D01*
X118079495Y-74509021D01*
X118081343Y-74600331D01*
X118084791Y-74688623D01*
X118089816Y-74772366D01*
X118096398Y-74850030D01*
X118104515Y-74920085D01*
X118114147Y-74981000D01*
X118125274Y-75031244D01*
X118128539Y-75042809D01*
X118145628Y-75078648D01*
X118172706Y-75108533D01*
X118206089Y-75129337D01*
X118227868Y-75135811D01*
X118261675Y-75141354D01*
X118306870Y-75145923D01*
X118362811Y-75149473D01*
X118428858Y-75151960D01*
X118504369Y-75153340D01*
X118558059Y-75153622D01*
X118701480Y-75153717D01*
X118742402Y-75110854D01*
X118754503Y-75097789D01*
X118774004Y-75076241D01*
X118799948Y-75047289D01*
X118831377Y-75012011D01*
X118867331Y-74971487D01*
X118906854Y-74926794D01*
X118948987Y-74879011D01*
X118992772Y-74829218D01*
X119008556Y-74811233D01*
X119055340Y-74757902D01*
X119102919Y-74703667D01*
X119150000Y-74650000D01*
X119195289Y-74598378D01*
X119237493Y-74550276D01*
X119275316Y-74507167D01*
X119307466Y-74470528D01*
X119332648Y-74441833D01*
X119334469Y-74439758D01*
X119363401Y-74407245D01*
X119390352Y-74377810D01*
X119413964Y-74352868D01*
X119432881Y-74333832D01*
X119445747Y-74322117D01*
X119450164Y-74319121D01*
X119464837Y-74316959D01*
X119478071Y-74324867D01*
X119487612Y-74335224D01*
X119490964Y-74341767D01*
X119488922Y-74348607D01*
X119483060Y-74366280D01*
X119473774Y-74393640D01*
X119461458Y-74429540D01*
X119446508Y-74472832D01*
X119429319Y-74522372D01*
X119410286Y-74577011D01*
X119389804Y-74635603D01*
X119383527Y-74653521D01*
X119359848Y-74721111D01*
X119335146Y-74791681D01*
X119310196Y-74863009D01*
X119285776Y-74932876D01*
X119262660Y-74999061D01*
X119241626Y-75059343D01*
X119223448Y-75111500D01*
X119212318Y-75143485D01*
X119195442Y-75191216D01*
X119178826Y-75236716D01*
X119163188Y-75278126D01*
X119149248Y-75313589D01*
X119137724Y-75341246D01*
X119129335Y-75359239D01*
X119127667Y-75362257D01*
X119091503Y-75411783D01*
X119045555Y-75456071D01*
X118992277Y-75493285D01*
X118934120Y-75521587D01*
X118899624Y-75533056D01*
X118889872Y-75535482D01*
X118878883Y-75537534D01*
X118865566Y-75539243D01*
X118848831Y-75540638D01*
X118827586Y-75541751D01*
X118800741Y-75542614D01*
X118767205Y-75543255D01*
X118725886Y-75543708D01*
X118675695Y-75544001D01*
X118615540Y-75544166D01*
X118544331Y-75544234D01*
X118503539Y-75544242D01*
X118147939Y-75544242D01*
X118086067Y-75522816D01*
X118007520Y-75489349D01*
X117937249Y-75446274D01*
X117875410Y-75393728D01*
X117822160Y-75331849D01*
X117777653Y-75260777D01*
X117766873Y-75239442D01*
X117749944Y-75199990D01*
X117734990Y-75155587D01*
X117721757Y-75104965D01*
X117709993Y-75046857D01*
X117699446Y-74979997D01*
X117689861Y-74903117D01*
X117680986Y-74814952D01*
X117680038Y-74804467D01*
X117677683Y-74769927D01*
X117675719Y-74724644D01*
X117674148Y-74670565D01*
X117672968Y-74609640D01*
X117672179Y-74543819D01*
X117671783Y-74475050D01*
X117671778Y-74405284D01*
X117672165Y-74336469D01*
X117672944Y-74270555D01*
X117674115Y-74209492D01*
X117675678Y-74155228D01*
X117677632Y-74109713D01*
X117679978Y-74074897D01*
X117680038Y-74074217D01*
X117689131Y-73981943D01*
X117699061Y-73901071D01*
X117710214Y-73830313D01*
X117722978Y-73768378D01*
X117737738Y-73713977D01*
X117754883Y-73665820D01*
X117774798Y-73622618D01*
X117797870Y-73583081D01*
X117824487Y-73545920D01*
X117846425Y-73519497D01*
X117905133Y-73460687D01*
X117968634Y-73413274D01*
X118038246Y-73376443D01*
X118115286Y-73349374D01*
X118124856Y-73346805D01*
X118165718Y-73338067D01*
X118218276Y-73329937D01*
X118281539Y-73322432D01*
X118354516Y-73315572D01*
X118436216Y-73309378D01*
X118525650Y-73303867D01*
X118621825Y-73299061D01*
X118723752Y-73294977D01*
X118830440Y-73291636D01*
X118940897Y-73289057D01*
X119054134Y-73287259D01*
X119169159Y-73286262D01*
X119284982Y-73286085D01*
X119400612Y-73286747D01*
M02*
